<?xml version="1.0" encoding="utf-8"?>
<!-- Generator: Adobe Illustrator 17.1.0, SVG Export Plug-In . SVG Version: 6.00 Build 0)  -->
<!DOCTYPE svg PUBLIC "-//W3C//DTD SVG 1.1//EN" "http://www.w3.org/Graphics/SVG/1.1/DTD/svg11.dtd">
<svg version="1.1" id="Layer_1" xmlns="http://www.w3.org/2000/svg" xmlns:xlink="http://www.w3.org/1999/xlink" x="0px" y="0px"
	 viewBox="0 0 40 20" enable-background="new 0 0 40 20" xml:space="preserve">
<g id="Design-Desktop" opacity="0.3">
	<g id="D.-For-Agency---3" transform="translate(-1065.000000, -792.000000)">
		<g id="Group-9" transform="translate(0.000000, 772.000000)">
			<g id="Group-4" transform="translate(1065.000000, 20.000000)">
				<g id="ic_facebook_20">
					<g id="Shape">
						<path fill="#FFFFFF" d="M18.9,0H1.1C0.5,0,0,0.5,0,1.1v17.8C0,19.5,0.5,20,1.1,20h9.6v-7.7H8.1v-3h2.6V7c0-2.6,1.6-4,3.9-4
							c1.1,0,2.1,0.1,2.3,0.1v2.7l-1.6,0c-1.3,0-1.5,0.6-1.5,1.5v1.9h3l-0.4,3h-2.6V20h5.1c0.6,0,1.1-0.5,1.1-1.1V1.1
							C20,0.5,19.5,0,18.9,0L18.9,0z"/>
					</g>
				</g>
			</g>
		</g>
	</g>
</g>
<g id="Design-Desktop_1_">
	<g id="D.-For-Agency---3_1_" transform="translate(-1065.000000, -862.000000)">
		<g id="Group-9-Copy" transform="translate(0.000000, 842.000000)">
			<g id="Group-4_1_" transform="translate(1065.000000, 20.000000)">
				<g id="ic_facebook_20_1_">
					<path id="Shape_1_" fill="#4C5E90" d="M38.9,0H21.1C20.5,0,20,0.5,20,1.1v17.8c0,0.6,0.5,1.1,1.1,1.1h9.6v-7.7h-2.6v-3h2.6V7
						c0-2.6,1.6-4,3.9-4c1.1,0,2.1,0.1,2.3,0.1v2.7l-1.6,0c-1.3,0-1.5,0.6-1.5,1.5v1.9h3l-0.4,3h-2.6V20h5.1c0.6,0,1.1-0.5,1.1-1.1
						V1.1C40,0.5,39.5,0,38.9,0L38.9,0z"/>
				</g>
			</g>
		</g>
	</g>
</g>
</svg>
