<?xml version="1.0" encoding="UTF-8"?>
<svg width="380px" height="380px" viewBox="0 0 380 380" version="1.1" xmlns="http://www.w3.org/2000/svg" xmlns:xlink="http://www.w3.org/1999/xlink">
    <!-- Generator: Sketch 49.3 (51167) - http://www.bohemiancoding.com/sketch -->
    <title>ic_pizza_380</title>
    <desc>Created with Sketch.</desc>
    <defs></defs>
    <g id="ic_pizza_380" stroke="none" stroke-width="1" fill="none" fill-rule="evenodd">
        <path d="M104.986667,81.9453278 C92.76,63.0253278 104.506667,31.6253278 132.773333,30.0119945 C146.12,29.5586612 207.48,41.8919945 254.533333,77.8519945 C268.8,88.7586612 281.68,101.411995 292.946667,115.398661 C328.746667,159.825328 350,225.545328 350,244.425328 C350,266.678661 323.213333,282.918661 301.293333,273.558661 L30,349.998661 L104.986667,81.9453278 Z M68.4933333,311.438661 L283.76,250.811995 C257.426667,161.811995 217.48,118.745328 128.826667,95.7853278 L68.4933333,311.438661 Z M116.706667,243.305328 C127.773333,243.305328 136.733333,252.291995 136.733333,263.318661 C136.733333,274.371995 127.773333,283.331995 116.706667,283.331995 C105.653333,283.331995 96.7066667,274.371995 96.7066667,263.318661 C96.7066667,252.291995 105.653333,243.305328 116.706667,243.305328 Z M172.626667,230.345328 C183.266667,234.025328 188.893333,245.638661 185.226667,256.278661 C181.546667,266.918661 169.92,272.545328 159.293333,268.878661 C159.293333,268.878661 153.026667,266.665328 155.026667,260.891995 C157.013333,255.131995 163.293333,257.318661 163.293333,257.318661 C167.546667,258.785328 172.2,256.531995 173.666667,252.291995 C175.133333,248.025328 172.88,243.385328 168.626667,241.891995 C168.626667,241.891995 162.213333,240.198661 164.373333,233.971995 C166.333333,228.318661 172.626667,230.345328 172.626667,230.345328 Z M132.093333,69.0919945 C227.52,92.7319945 280.24,142.225328 309.626667,243.331995 C312.44,253.011995 326.64,248.078661 324.44,239.998661 C294.84,131.438661 233.36,73.0386612 136.066667,54.1586612 C127.52,52.4919945 123.52,66.9719945 132.093333,69.0919945 Z M216.786667,189.985328 C231.506667,189.985328 243.453333,201.945328 243.453333,216.665328 C243.453333,231.398661 231.506667,243.331995 216.786667,243.331995 C202.053333,243.331995 190.093333,231.398661 190.093333,216.665328 C190.093333,201.945328 202.053333,189.985328 216.786667,189.985328 Z M138.96,229.851995 C128.106667,227.291995 121.36,216.398661 123.92,205.558661 C126.493333,194.705328 137.386667,187.971995 148.226667,190.531995 C148.226667,190.531995 154.626667,192.078661 153.253333,197.971995 C151.853333,203.865328 145.466667,202.331995 145.466667,202.331995 C141.106667,201.305328 136.76,203.998661 135.746667,208.345328 C134.706667,212.678661 137.4,217.038661 141.733333,218.065328 C141.733333,218.065328 148.226667,219.105328 146.733333,225.451995 C145.36,231.225328 138.96,229.851995 138.96,229.851995 Z M163.413333,128.771995 C178.133333,128.771995 190.093333,140.731995 190.093333,155.438661 C190.093333,170.158661 178.133333,182.105328 163.413333,182.105328 C148.68,182.105328 136.733333,170.158661 136.733333,155.438661 C136.733333,140.731995 148.68,128.771995 163.413333,128.771995 Z" id="Shape" fill="#FFFFFF"></path>
    </g>
</svg>