<?xml version="1.0" encoding="utf-8"?>
<!-- Generator: Adobe Illustrator 17.1.0, SVG Export Plug-In . SVG Version: 6.00 Build 0)  -->
<!DOCTYPE svg PUBLIC "-//W3C//DTD SVG 1.1 Basic//EN" "http://www.w3.org/Graphics/SVG/1.1/DTD/svg11-basic.dtd">
<svg version="1.1" baseProfile="basic" id="Layer_1"
	 xmlns="http://www.w3.org/2000/svg" xmlns:xlink="http://www.w3.org/1999/xlink" x="0px" y="0px" viewBox="0 0 40 20"
	 xml:space="preserve">
<g id="Design-Desktop">
	<g id="D.-For-Agency---3" transform="translate(-1135.000000, -862.000000)">
		<g id="Group-9-Copy" transform="translate(0.000000, 842.000000)">
			<g id="Group-4" transform="translate(1065.000000, 20.000000)">
				<g id="ic_twitter_20" transform="translate(70.000000, 0.000000)">
					<path id="Shape" fill="#00ABF1" d="M40,3.8c-0.7,0.3-1.5,0.5-2.4,0.6c0.8-0.5,1.5-1.3,1.8-2.3c-0.8,0.5-1.7,0.8-2.6,1
						c-0.7-0.8-1.8-1.3-3-1.3c-2.6,0-4.6,2.5-4,5c-3.4-0.2-6.4-1.8-8.5-4.3c-1.1,1.8-0.6,4.3,1.3,5.5c-0.7,0-1.3-0.2-1.9-0.5
						c0,1.9,1.3,3.7,3.3,4.1c-0.6,0.2-1.2,0.2-1.9,0.1c0.5,1.6,2,2.8,3.8,2.8c-1.7,1.4-3.9,2-6.1,1.7c1.8,1.2,4,1.8,6.3,1.8
						c7.6,0,11.9-6.4,11.7-12.2C38.8,5.3,39.5,4.6,40,3.8L40,3.8z"/>
				</g>
			</g>
		</g>
	</g>
</g>
<g id="Design-Desktop_1_" opacity="0.3">
	<g id="D.-For-Agency---3_1_" transform="translate(-1135.000000, -862.000000)">
		<g id="Group-9-Copy_1_" transform="translate(0.000000, 842.000000)">
			<g id="Group-4_1_" transform="translate(1065.000000, 20.000000)">
				<g id="ic_twitter_20_1_" transform="translate(70.000000, 0.000000)">
					<path id="Shape_1_" fill="#FFFFFF" d="M20,3.8c-0.7,0.3-1.5,0.5-2.4,0.6c0.8-0.5,1.5-1.3,1.8-2.3c-0.8,0.5-1.7,0.8-2.6,1
						c-0.7-0.8-1.8-1.3-3-1.3c-2.6,0-4.6,2.5-4,5C6.4,6.7,3.4,5.1,1.4,2.6C0.3,4.5,0.8,6.9,2.7,8.1C2,8.1,1.4,7.9,0.8,7.6
						c0,1.9,1.3,3.7,3.3,4.1c-0.6,0.2-1.2,0.2-1.9,0.1c0.5,1.6,2,2.8,3.8,2.8c-1.7,1.4-3.9,2-6.1,1.7c1.8,1.2,4,1.8,6.3,1.8
						c7.6,0,11.9-6.4,11.7-12.2C18.8,5.3,19.5,4.6,20,3.8L20,3.8z"/>
				</g>
			</g>
		</g>
	</g>
</g>
</svg>
