<?xml version="1.0" encoding="utf-8"?>
<!-- Generator: Adobe Illustrator 17.1.0, SVG Export Plug-In . SVG Version: 6.00 Build 0)  -->
<!DOCTYPE svg PUBLIC "-//W3C//DTD SVG 1.1 Basic//EN" "http://www.w3.org/Graphics/SVG/1.1/DTD/svg11-basic.dtd">
<svg version="1.1" baseProfile="basic" id="Layer_1"
	 xmlns="http://www.w3.org/2000/svg" xmlns:xlink="http://www.w3.org/1999/xlink" x="0px" y="0px" viewBox="0 0 40 20"
	 xml:space="preserve">
<g id="Design-Desktop" opacity="0.3">
	<g id="D.-For-Users" transform="translate(-1170.000000, -4362.000000)">
		<g id="Footer" transform="translate(0.000000, 4062.000000)">
			<g id="Group-9" transform="translate(0.000000, 280.000000)">
				<g id="Group-4" transform="translate(1065.000000, 20.000000)">
					<g id="ic_youtube_20" transform="translate(105.000000, 0.000000)">
						<g id="Shape">
							<path fill="#FFFFFF" d="M16.3,2.4c-3-0.2-9.7-0.2-12.7,0C0.4,2.6,0,4.6,0,9.8c0,5.2,0.4,7.1,3.7,7.3c3,0.2,9.7,0.2,12.7,0
								c3.2-0.2,3.6-2.2,3.7-7.3C20,4.6,19.6,2.6,16.3,2.4L16.3,2.4z M7.5,13.1V6.4l6.7,3.3L7.5,13.1L7.5,13.1z"/>
						</g>
					</g>
				</g>
			</g>
		</g>
	</g>
</g>
<g id="Design-Desktop_1_">
	<g id="D.-For-Agency---3" transform="translate(-1170.000000, -862.000000)">
		<g id="Group-9-Copy" transform="translate(0.000000, 842.000000)">
			<g id="Group-4_1_" transform="translate(1065.000000, 20.000000)">
				<g id="ic_youtube_20_1_" transform="translate(105.000000, 0.000000)">
					<path id="Shape_1_" fill="#E52D27" d="M36.3,2.4c-3-0.2-9.7-0.2-12.7,0C20.4,2.6,20,4.6,20,9.8c0,5.2,0.4,7.1,3.7,7.3
						c3,0.2,9.7,0.2,12.7,0c3.2-0.2,3.6-2.2,3.7-7.3C40,4.6,39.6,2.6,36.3,2.4L36.3,2.4z M27.5,13.1V6.4l6.7,3.3L27.5,13.1
						L27.5,13.1z"/>
				</g>
			</g>
		</g>
	</g>
</g>
</svg>
