<?xml version="1.0" encoding="UTF-8"?>
<svg width="180px" height="50px" viewBox="0 0 180 50" version="1.1" xmlns="http://www.w3.org/2000/svg" xmlns:xlink="http://www.w3.org/1999/xlink">
    <!-- Generator: Sketch 42 (36781) - http://www.bohemiancoding.com/sketch -->
    <title>logo</title>
    <desc>Created with Sketch.</desc>
    <defs></defs>
    <g id="Design-Desktop" stroke="none" stroke-width="1" fill="none" fill-rule="evenodd">
        <g id="D.-For-Users" transform="translate(-250.000000, -4112.000000)" fill-rule="nonzero" fill="#FFFFFF">
            <g id="Footer" transform="translate(0.000000, 4062.000000)">
                <g id="logo" transform="translate(250.000000, 50.000000)">
                    <path d="M72.7432565,5.97229362 C71.8194915,5.63749737 70.8487716,5.44791487 69.866134,5.41038862 C69.3644765,5.38368112 68.8655228,5.49929487 68.4275727,5.74372237 C68.0947074,5.94582987 67.8955204,6.30877112 67.9048955,6.69610362 C67.9027267,7.09272112 68.0784785,7.46970862 68.3844155,7.72467487 C68.714178,8.01570362 69.0965698,8.24192862 69.5112885,8.39134112 C69.9588415,8.55959612 70.6205794,8.77705612 71.4965035,9.04372237 C72.5991269,9.34534487 73.6804158,9.71917987 74.7332673,10.1627699 C75.5977255,10.5525261 76.3496421,11.1518461 76.9198796,11.9056274 C77.5619497,12.7826936 77.8833617,13.8511074 77.8309691,14.9341986 C77.8580987,16.0677274 77.5093355,17.1786949 76.8383622,18.0961036 C76.1398666,19.0025324 75.1947772,19.6915561 74.1146853,20.0818174 C72.8884724,20.5376774 71.5877522,20.7637224 70.2785215,20.7484849 C68.6894866,20.7429474 67.113112,20.4675486 65.6175827,19.9341986 C64.1547277,19.4391286 62.7947371,18.6839836 61.6039955,17.7056274 L63.522078,13.8961036 C64.5177676,14.7614761 65.6523327,15.4551936 66.8787218,15.9484849 C67.9664731,16.4348674 69.1390813,16.7065761 70.3312691,16.7484849 C70.9347348,16.7799736 71.5348611,16.6413024 72.0623379,16.3484849 C72.4728449,16.1020311 72.7154736,15.6529999 72.6953048,15.1770561 C72.7015594,14.7686999 72.5260997,14.3783999 72.2157848,14.1103886 C71.8718815,13.8080499 71.4709108,13.5765836 71.0361642,13.4294374 C70.5598401,13.2611824 69.8933064,13.0611824 69.0365631,12.8294374 C67.9483662,12.5421424 66.8813199,12.1809749 65.8429565,11.7484849 C64.9969338,11.3814686 64.254391,10.8141236 63.6803194,10.0961036 C63.0440144,9.24745362 62.7252533,8.20520487 62.7788215,7.14848487 C62.75736,6.06426112 63.0812543,5.00099987 63.7042959,4.11038862 C64.369255,3.20225612 65.2830583,2.50306862 66.3368627,2.09610362 C67.5967859,1.61729362 68.939645,1.39072237 70.2881119,1.42943737 C71.6512506,1.42943737 73.0074701,1.62183737 74.3160839,2.00086487 C75.5480366,2.34227987 76.7238294,2.85872987 77.8069926,3.53419862 L75.9560438,7.42943737 C74.940665,6.83103487 73.863574,6.34252612 72.7432565,5.97229362 Z M79.3938462,1.78217487 L95.5346853,1.78217487 L95.5346853,5.81092487 L89.8904895,5.81092487 L89.8904895,20.4771749 L84.9763636,20.4771749 L84.9763636,5.81092487 L79.3938462,5.81092487 L79.3938462,1.78217487 Z M108.947053,20.4770561 L106.208991,15.3056274 L102.555045,15.3056274 L102.555045,20.4770561 L97.6447548,20.4770561 L97.6447548,1.78181737 L106.103496,1.78181737 C108.590609,1.78181737 110.51988,2.35483362 111.891309,3.50086487 C113.262737,4.64689737 113.946853,6.25959612 113.943657,8.33896112 C113.976939,9.60473987 113.681327,10.8576924 113.085315,11.9770561 C112.509311,12.9996161 111.639537,13.8285349 110.587013,14.3580086 L114.504695,20.4770561 L108.947053,20.4770561 Z M102.555045,11.4294374 L106.127473,11.4294374 C106.968696,11.4824549 107.798644,11.2151061 108.448351,10.6818174 C109.023875,10.1129974 109.322966,9.32443612 109.268332,8.51991362 C109.317945,7.73583487 109.018119,6.96971112 108.448351,6.42467487 C107.79446,5.90030487 106.966268,5.63861987 106.127473,5.69134112 L102.555045,5.69134112 L102.555045,11.4294374 Z M117.338601,1.78217487 L132.204336,1.78217487 L132.204336,5.67717487 L122.253986,5.67717487 L122.253986,9.17217487 L131.221259,9.17217487 L131.221259,13.0384249 L122.253986,13.0671749 L122.253986,16.5871749 L132.457343,16.5871749 L132.457343,20.4771749 L117.338601,20.4771749 L117.338601,1.78217487 Z M149.922078,20.4770561 L148.651349,17.1722936 L140.499501,17.1722936 L139.18082,20.4770561 L134.131469,20.4770561 L142.216184,1.78181737 L147.265535,1.78181737 L155.158442,20.4770561 L149.922078,20.4770561 Z M141.971628,13.4389611 L147.17922,13.4389611 L144.5994,6.77229362 L141.971628,13.4389611 Z M157.133706,1.78217487 L162.475804,1.78217487 L167.928671,12.7346749 L173.351329,1.78217487 L178.693427,1.78217487 L178.693427,20.4771749 L174.344476,20.4771749 L174.315524,8.63842487 L169.51972,18.6109249 L166.35021,18.6109249 L161.507832,8.63842487 L161.507832,20.4771749 L157.128671,20.4771749 L157.133706,1.78217487 Z M77.2411594,29.6961036 C78.5646352,30.8421349 79.2263731,32.4548336 79.2263731,34.5341986 C79.2263731,36.7373736 78.5646352,38.4484849 77.2411594,39.6675324 C75.9176824,40.8865799 74.0555446,41.4961036 71.6547449,41.4961036 L68.2981024,41.4961036 L68.2981024,46.6675324 L63.3878119,46.6675324 L63.3878119,27.9722936 L71.6595407,27.9722936 C74.0571432,27.9722936 75.9176824,28.5468974 77.2411594,29.6961036 Z M74.5558439,34.6770561 C74.6054572,33.8929774 74.3056313,33.1268536 73.7358646,32.5818174 C73.0819724,32.0574474 72.2537799,31.7957624 71.4149849,31.8484849 L68.2981024,31.8484849 L68.2981024,37.6199136 L71.4149849,37.6199136 C72.260382,37.6688711 73.092571,37.3945374 73.7406592,36.8532461 C74.3113888,36.2701399 74.6104783,35.4815786 74.5558439,34.6770561 Z M83.4608392,27.9721749 L88.3762238,27.9721749 L88.3762238,42.5059249 L96.3503497,42.5059249 L96.3503497,46.6671749 L83.4608392,46.6671749 L83.4608392,27.9721749 Z M100.185734,27.9721749 L115.051469,27.9721749 L115.051469,31.8671749 L105.101119,31.8671749 L105.101119,35.3621749 L114.068392,35.3621749 L114.068392,39.2296749 L105.101119,39.2584249 L105.101119,42.7771749 L115.305734,42.7771749 L115.305734,46.6671749 L100.185734,46.6671749 L100.185734,27.9721749 Z M133.306993,27.9721749 L137.871189,27.9721749 L137.871189,46.6671749 L133.556224,46.6671749 L125.020699,35.4959249 L125.020699,46.6671749 L120.426294,46.6671749 L120.426294,27.9721749 L124.742517,27.9721749 L133.306993,39.2296749 L133.306993,27.9721749 Z M141.588252,27.9721749 L157.729091,27.9721749 L157.729091,32.0009249 L152.08993,32.0009249 L152.08993,46.6671749 L147.174545,46.6671749 L147.174545,32.0009249 L141.588252,32.0009249 L141.588252,27.9721749 Z M179.178042,27.9721749 L172.383357,40.6959249 L172.383357,46.6671749 L167.467972,46.6671749 L167.467972,40.8296749 L160.538601,27.9721749 L165.435105,27.9721749 L169.893566,36.0009249 L174.243776,27.9721749 L179.178042,27.9721749 Z M24.9350652,32.7389611 C20.4991313,32.7389611 16.9030964,29.1678986 16.9030964,24.7627699 C16.9030964,20.3576424 20.4991313,16.7865799 24.9350652,16.7865799 C29.370999,16.7865799 32.9670327,20.3576424 32.9670327,24.7627699 C32.9670327,25.5517486 32.3229676,26.1913411 31.5284715,26.1913411 C30.7339766,26.1913411 30.0899102,25.5517486 30.0899102,24.7627699 C30.0899102,21.9355986 27.7820069,19.6437224 24.9350652,19.6437224 C22.0881222,19.6437224 19.7802201,21.9355986 19.7802201,24.7627699 C19.7802201,27.5899424 22.0881222,29.8818174 24.9350652,29.8818174 C25.72956,29.8818174 26.3736264,30.5214111 26.3736264,31.3103886 C26.3736264,32.0993674 25.72956,32.7389611 24.9350652,32.7389611 Z M24.9350652,38.3341986 C21.3087751,38.3435724 17.8294443,36.9117774 15.2727269,34.3580086 C14.8878579,34.0018736 14.7294327,33.4655211 14.8596004,32.9593624 C14.9897681,32.4532036 15.3877695,32.0579661 15.8974678,31.9287024 C16.4071662,31.7994386 16.9472694,31.9567636 17.3058936,32.3389611 C21.5193688,36.5231749 28.3507615,36.5231749 32.5642355,32.3389599 C36.7777108,28.1547461 36.7777108,21.3707936 32.5642355,17.1865799 C32.0360752,16.6237036 32.0516597,15.7465611 32.5994866,15.2025386 C33.1473147,14.6585149 34.030591,14.6430386 34.5974022,15.1675324 C38.5049178,19.0488911 39.6736741,24.8853486 37.5588088,29.9560036 C35.4439435,35.0266586 30.4618229,38.3332199 24.9350652,38.3341986 Z M12.7072927,26.1913411 C11.9127971,26.1913411 11.2687313,25.5517486 11.2687313,24.7627699 C11.2687313,17.2674774 17.3873568,11.1913411 24.9350652,11.1913411 C25.72956,11.1913411 26.3736264,11.8309349 26.3736264,12.6199136 C26.3736264,13.4088911 25.72956,14.0484849 24.9350652,14.0484849 C18.976349,14.0484849 14.1458538,18.8454336 14.1458538,24.7627699 C14.1458538,25.5517486 13.5017883,26.1913411 12.7072927,26.1913411 Z M12.3044955,38.7341986 C11.9230939,38.7338649 11.5574358,38.5831374 11.287912,38.3151511 C3.86078098,30.8119124 3.91282892,18.7658624 11.4045246,11.3261924 C18.89622,3.88652237 31.0265094,3.83483487 38.5822183,11.2103886 C42.2131015,14.7971636 44.2487631,19.6769436 44.2357641,24.7627699 C44.2357641,25.5517486 43.5916989,26.1913411 42.7972028,26.1913411 C42.0027067,26.1913411 41.3586415,25.5517486 41.3586415,24.7627699 C41.3579505,17.3813086 36.365045,10.9205049 29.1851635,9.01032737 C22.005282,7.10015112 14.4285596,10.2168574 10.7119361,16.6093436 C6.99531306,23.0018299 8.06544277,31.0762786 13.3210789,36.2961036 C13.731971,36.7046499 13.8548014,37.3186599 13.6323587,37.8521486 C13.4099163,38.3856361 12.885946,38.7336911 12.3044955,38.7341986 Z M24.9350652,43.9294374 C24.1405691,43.9294374 23.4965039,43.2898436 23.4965039,42.5008649 C23.4965039,41.7118874 24.1405691,41.0722936 24.9350652,41.0722936 C29.291575,41.0896674 33.4738775,39.3748624 36.5490516,36.3103886 C37.1158628,35.7858961 37.9991392,35.8013724 38.5469673,36.3453949 C39.0947941,36.8894186 39.1103786,37.7665611 38.5822183,38.3294374 C34.9679895,41.9298661 30.0543797,43.9461261 24.9350652,43.9294374 Z M24.9350652,49.5246749 C11.1638088,49.5246749 -1.42108547e-14,38.4383924 -1.42108547e-14,24.7627699 C-1.42108547e-14,23.9737924 0.64406593,23.3341986 1.43856138,23.3341986 C2.23305697,23.3341986 2.8771229,23.9737924 2.8771229,24.7627699 C2.87592483,33.6233336 8.25018394,41.6119561 16.4934554,45.0029074 C24.7367266,48.3938599 34.2252869,46.5192061 40.5338664,40.2532461 C49.1488464,31.6980924 49.1488464,17.8274474 40.5338664,9.27229362 C31.9188864,0.717141119 17.9512439,0.717139869 9.33626379,9.27229362 C8.97763884,9.65449112 8.43753587,9.81181612 7.92783743,9.68255237 C7.4181391,9.55328862 7.02013783,9.15805112 6.88996976,8.65189237 C6.75980182,8.14573362 6.91822762,7.60938112 7.30309695,7.25324612 C13.6023923,0.997696119 22.7838159,-1.44537513 31.3888129,0.844316119 C39.993811,3.13400612 46.715079,9.80859862 49.0207821,18.3538399 C51.3264839,26.8990799 48.8663283,36.0167436 42.5670331,42.2722936 C37.900946,46.9312124 31.5518765,49.5427111 24.9350652,49.5246749 Z" id="Shape"></path>
                </g>
            </g>
        </g>
    </g>
</svg>