<?xml version="1.0" encoding="UTF-8"?>
<svg width="180px" height="50px" viewBox="0 0 180 50" version="1.1" xmlns="http://www.w3.org/2000/svg" xmlns:xlink="http://www.w3.org/1999/xlink">
    <!-- Generator: Sketch 42 (36781) - http://www.bohemiancoding.com/sketch -->
    <title>logo</title>
    <desc>Created with Sketch.</desc>
    <defs></defs>
    <g id="Design-Desktop" stroke="none" stroke-width="1" fill="none" fill-rule="evenodd">
        <g id="D.-For-Agency" transform="translate(-250.000000, -25.000000)" fill-rule="nonzero" fill="#0E96FC">
            <g id="Header">
                <g id="logo" transform="translate(250.000000, 25.000000)">
                    <path d="M72.7432565,5.97229375 C71.8194915,5.6374975 70.8487716,5.447915 69.866134,5.41038875 C69.3644765,5.38368125 68.8655228,5.499295 68.4275727,5.7437225 C68.0947074,5.94583 67.8955204,6.30877125 67.9048955,6.69610375 C67.9027267,7.09272125 68.0784785,7.46970875 68.3844155,7.724675 C68.714178,8.01570375 69.0965698,8.24192875 69.5112885,8.39134125 C69.9588415,8.55959625 70.6205794,8.77705625 71.4965035,9.0437225 C72.5991269,9.345345 73.6804158,9.71918 74.7332673,10.16277 C75.5977255,10.5525262 76.3496421,11.1518462 76.9198796,11.9056275 C77.5619497,12.7826937 77.8833617,13.8511075 77.8309691,14.9341987 C77.8580987,16.0677275 77.5093355,17.178695 76.8383622,18.0961037 C76.1398666,19.0025325 75.1947772,19.6915562 74.1146853,20.0818175 C72.8884724,20.5376775 71.5877522,20.7637225 70.2785215,20.748485 C68.6894866,20.7429475 67.113112,20.4675487 65.6175827,19.9341987 C64.1547277,19.4391287 62.7947371,18.6839837 61.6039955,17.7056275 L63.522078,13.8961037 C64.5177676,14.7614762 65.6523327,15.4551937 66.8787218,15.948485 C67.9664731,16.4348675 69.1390813,16.7065762 70.3312691,16.748485 C70.9347348,16.7799737 71.5348611,16.6413025 72.0623379,16.348485 C72.4728449,16.1020312 72.7154736,15.653 72.6953048,15.1770562 C72.7015594,14.7687 72.5260997,14.3784 72.2157848,14.1103887 C71.8718815,13.80805 71.4709108,13.5765837 71.0361642,13.4294375 C70.5598401,13.2611825 69.8933064,13.0611825 69.0365631,12.8294375 C67.9483662,12.5421425 66.8813199,12.180975 65.8429565,11.748485 C64.9969338,11.3814687 64.254391,10.8141237 63.6803194,10.0961037 C63.0440144,9.24745375 62.7252533,8.205205 62.7788215,7.148485 C62.75736,6.06426125 63.0812543,5.001 63.7042959,4.11038875 C64.369255,3.20225625 65.2830583,2.50306875 66.3368627,2.09610375 C67.5967859,1.61729375 68.939645,1.3907225 70.2881119,1.4294375 C71.6512506,1.4294375 73.0074701,1.6218375 74.3160839,2.000865 C75.5480366,2.34228 76.7238294,2.85873 77.8069926,3.53419875 L75.9560438,7.4294375 C74.940665,6.831035 73.863574,6.34252625 72.7432565,5.97229375 Z M79.3938462,1.782175 L95.5346853,1.782175 L95.5346853,5.810925 L89.8904895,5.810925 L89.8904895,20.477175 L84.9763636,20.477175 L84.9763636,5.810925 L79.3938462,5.810925 L79.3938462,1.782175 Z M108.947053,20.4770562 L106.208991,15.3056275 L102.555045,15.3056275 L102.555045,20.4770562 L97.6447548,20.4770562 L97.6447548,1.7818175 L106.103496,1.7818175 C108.590609,1.7818175 110.51988,2.35483375 111.891309,3.500865 C113.262737,4.6468975 113.946853,6.25959625 113.943657,8.33896125 C113.976939,9.60474 113.681327,10.8576925 113.085315,11.9770562 C112.509311,12.9996162 111.639537,13.828535 110.587013,14.3580087 L114.504695,20.4770562 L108.947053,20.4770562 Z M102.555045,11.4294375 L106.127473,11.4294375 C106.968696,11.482455 107.798644,11.2151062 108.448351,10.6818175 C109.023875,10.1129975 109.322966,9.32443625 109.268332,8.51991375 C109.317945,7.735835 109.018119,6.96971125 108.448351,6.424675 C107.79446,5.900305 106.966268,5.63862 106.127473,5.69134125 L102.555045,5.69134125 L102.555045,11.4294375 Z M117.338601,1.782175 L132.204336,1.782175 L132.204336,5.677175 L122.253986,5.677175 L122.253986,9.172175 L131.221259,9.172175 L131.221259,13.038425 L122.253986,13.067175 L122.253986,16.587175 L132.457343,16.587175 L132.457343,20.477175 L117.338601,20.477175 L117.338601,1.782175 Z M149.922078,20.4770562 L148.651349,17.1722937 L140.499501,17.1722937 L139.18082,20.4770562 L134.131469,20.4770562 L142.216184,1.7818175 L147.265535,1.7818175 L155.158442,20.4770562 L149.922078,20.4770562 Z M141.971628,13.4389612 L147.17922,13.4389612 L144.5994,6.77229375 L141.971628,13.4389612 Z M157.133706,1.782175 L162.475804,1.782175 L167.928671,12.734675 L173.351329,1.782175 L178.693427,1.782175 L178.693427,20.477175 L174.344476,20.477175 L174.315524,8.638425 L169.51972,18.610925 L166.35021,18.610925 L161.507832,8.638425 L161.507832,20.477175 L157.128671,20.477175 L157.133706,1.782175 Z M77.2411594,29.6961037 C78.5646352,30.842135 79.2263731,32.4548337 79.2263731,34.5341987 C79.2263731,36.7373737 78.5646352,38.448485 77.2411594,39.6675325 C75.9176824,40.88658 74.0555446,41.4961037 71.6547449,41.4961037 L68.2981024,41.4961037 L68.2981024,46.6675325 L63.3878119,46.6675325 L63.3878119,27.9722937 L71.6595407,27.9722937 C74.0571432,27.9722937 75.9176824,28.5468975 77.2411594,29.6961037 Z M73.7358646,36.8389612 C74.3113888,36.27014 74.6104783,35.4815787 74.5558439,34.6770562 C74.6054572,33.8929775 74.3056313,33.1268537 73.7358646,32.5818175 C73.0819724,32.0574475 72.2537799,31.7957625 71.4149849,31.848485 L68.2981024,31.848485 L68.2981024,37.6199137 L71.4149849,37.6199137 C72.260382,37.6688712 73.092571,37.3945375 73.7406592,36.8532462 L73.7358646,36.8389612 Z M83.4608392,27.972175 L88.3762238,27.972175 L88.3762238,42.505925 L96.3503497,42.505925 L96.3503497,46.667175 L83.4608392,46.667175 L83.4608392,27.972175 Z M100.185734,27.972175 L115.051469,27.972175 L115.051469,31.867175 L105.101119,31.867175 L105.101119,35.362175 L114.068392,35.362175 L114.068392,39.229675 L105.101119,39.258425 L105.101119,42.777175 L115.305734,42.777175 L115.305734,46.667175 L100.185734,46.667175 L100.185734,27.972175 Z M133.306993,27.972175 L137.871189,27.972175 L137.871189,46.667175 L133.556224,46.667175 L125.020699,35.495925 L125.020699,46.667175 L120.426294,46.667175 L120.426294,27.972175 L124.742517,27.972175 L133.306993,39.229675 L133.306993,27.972175 Z M141.588252,27.972175 L157.729091,27.972175 L157.729091,32.000925 L152.08993,32.000925 L152.08993,46.667175 L147.174545,46.667175 L147.174545,32.000925 L141.588252,32.000925 L141.588252,27.972175 Z M179.178042,27.972175 L172.383357,40.695925 L172.383357,46.667175 L167.467972,46.667175 L167.467972,40.829675 L160.538601,27.972175 L165.435105,27.972175 L169.893566,36.000925 L174.243776,27.972175 L179.178042,27.972175 Z M24.9350652,32.7389612 C20.4991313,32.7389612 16.9030964,29.1678987 16.9030964,24.76277 C16.9030964,20.3576425 20.4991313,16.78658 24.9350652,16.78658 C29.370999,16.78658 32.9670327,20.3576425 32.9670327,24.76277 C32.9670327,25.5517487 32.3229676,26.1913413 31.5284715,26.1913413 C30.7339766,26.1913413 30.0899102,25.5517487 30.0899102,24.76277 C30.0899102,21.9355987 27.7820069,19.6437225 24.9350652,19.6437225 C22.0881222,19.6437225 19.7802201,21.9355987 19.7802201,24.76277 C19.7802201,27.5899425 22.0881222,29.8818175 24.9350652,29.8818175 C25.72956,29.8818175 26.3736264,30.5214112 26.3736264,31.3103888 C26.3736264,32.0993675 25.72956,32.7389612 24.9350652,32.7389612 Z M24.9350652,38.3341987 C21.3087751,38.3435725 17.8294443,36.9117775 15.2727269,34.3580087 C14.8878579,34.0018737 14.7294327,33.4655212 14.8596004,32.9593625 C14.9897681,32.4532037 15.3877695,32.0579662 15.8974678,31.9287025 C16.4071662,31.7994387 16.9472694,31.9567637 17.3058936,32.3389612 C21.5193688,36.523175 28.3507615,36.523175 32.5642355,32.33896 C36.7777108,28.1547462 36.7777108,21.3707937 32.5642355,17.18658 C32.0360752,16.6237037 32.0516597,15.7465612 32.5994866,15.2025387 C33.1473147,14.658515 34.030591,14.6430387 34.5974022,15.1675325 C38.5049178,19.0488912 39.6736741,24.8853487 37.5588088,29.9560037 C35.4439435,35.0266587 30.4618229,38.33322 24.9350652,38.3341987 Z M12.7072927,26.1913412 C11.9127971,26.1913412 11.2687313,25.5517487 11.2687313,24.76277 C11.2687313,17.2674775 17.3873568,11.1913412 24.9350652,11.1913412 C25.72956,11.1913412 26.3736264,11.830935 26.3736264,12.6199137 C26.3736264,13.4088912 25.72956,14.048485 24.9350652,14.048485 C18.976349,14.048485 14.1458538,18.8454337 14.1458538,24.76277 C14.1458538,25.5517487 13.5017883,26.1913412 12.7072927,26.1913412 Z M12.3044955,38.7341987 C11.9230939,38.733865 11.5574358,38.5831375 11.287912,38.3151512 C3.86078098,30.8119125 3.91282892,18.7658625 11.4045246,11.3261925 C18.89622,3.8865225 31.0265094,3.834835 38.5822183,11.2103887 C42.2131015,14.7971637 44.2487631,19.6769437 44.2357641,24.76277 C44.2357641,25.5517487 43.5916989,26.1913412 42.7972028,26.1913412 C42.0027067,26.1913412 41.3586415,25.5517487 41.3586415,24.76277 C41.3579505,17.3813087 36.365045,10.920505 29.1851635,9.0103275 C22.005282,7.10015125 14.4285596,10.2168575 10.7119361,16.6093437 C6.99531306,23.00183 8.06544277,31.0762787 13.3210789,36.2961037 C13.731971,36.70465 13.8548014,37.31866 13.6323587,37.8521487 C13.4099163,38.3856362 12.885946,38.7336912 12.3044955,38.7341987 Z M24.9350652,43.9294375 C24.1405691,43.9294375 23.4965039,43.2898437 23.4965039,42.500865 C23.4965039,41.7118875 24.1405691,41.0722937 24.9350652,41.0722937 C29.291575,41.0896675 33.4738775,39.3748625 36.5490516,36.3103887 C37.1158628,35.7858962 37.9991392,35.8013725 38.5469673,36.345395 C39.0947941,36.8894187 39.1103786,37.7665612 38.5822183,38.3294375 C34.9679895,41.9298662 30.0543797,43.9461262 24.9350652,43.9294375 Z M24.9350652,49.524675 C11.1638088,49.524675 -1.42108547e-14,38.4383925 -1.42108547e-14,24.76277 C-1.42108547e-14,23.9737925 0.64406593,23.3341987 1.43856138,23.3341987 C2.23305697,23.3341987 2.8771229,23.9737925 2.8771229,24.76277 C2.87592483,33.6233337 8.25018394,41.6119562 16.4934554,45.0029075 C24.7367266,48.39386 34.2252869,46.5192062 40.5338664,40.2532462 C49.1488464,31.6980925 49.1488464,17.8274475 40.5338664,9.27229375 C31.9188864,0.71714125 17.9512439,0.71714 9.33626379,9.27229375 C8.97763884,9.65449125 8.43753587,9.81181625 7.92783743,9.6825525 C7.4181391,9.55328875 7.02013783,9.15805125 6.88996976,8.6518925 C6.75980182,8.14573375 6.91822762,7.60938125 7.30309695,7.25324625 C13.6023923,0.99769625 22.7838159,-1.445375 31.3888129,0.84431625 C39.993811,3.13400625 46.715079,9.80859875 49.0207821,18.35384 C51.3264839,26.89908 48.8663283,36.0167437 42.5670331,42.2722937 C37.900946,46.9312125 31.5518765,49.5427112 24.9350652,49.524675 Z" id="Shape"></path>
                </g>
            </g>
        </g>
    </g>
</svg>